# xmcd
#
# Track frame offsets:
#	150
#	24167
#	43878
#	53444
#	67626
#	83246
#	96757
#	113398
#	135197
#	155509
#	170943
#	183636
#	196055
#	217165
#	242000
#
# Disc length: 3627 seconds
#
# Revision: 1
# Processed by: cddbd v1.5.2PL0 Copyright (c) Steve Scherf et al.
# Submitted via: audiograbber 1.83.01
#
DISCID=bd0e290f
DTITLE=The best of Klezmer - CD 1
DYEAR=1900
DGENRE=
TTITLE0=Fiddler on the roof
TTITLE1=Mother
TTITLE2=Meron melody
TTITLE3=The rumanian klezmer
TTITLE4=Freilach
TTITLE5=Long road
TTITLE6=The crying laughing klezmer
TTITLE7=Medley of Gypsy melodies
TTITLE8=Medley of Russian melodies
TTITLE9=Happiness melody
TTITLE10=Medley of Meron melodies
TTITLE11=Chalakah
TTITLE12=Hap kozak
TTITLE13=The four babot tune
TTITLE14=Od Yishma
EXTD=
EXTT0=
EXTT1=
EXTT2=
EXTT3=
EXTT4=
EXTT5=
EXTT6=
EXTT7=
EXTT8=
EXTT9=
EXTT10=
EXTT11=
EXTT12=
EXTT13=
EXTT14=
PLAYORDER=
